<mxfile host="Electron" modified="2023-11-13T17:58:22.761Z" agent="Mozilla/5.0 (Windows NT 10.0; Win64; x64) AppleWebKit/537.36 (KHTML, like Gecko) draw.io/22.0.3 Chrome/114.0.5735.289 Electron/25.8.4 Safari/537.36" etag="D6mLnlzFZSNmAMJmCJr0" version="22.0.3" type="device">
  <diagram id="C5RBs43oDa-KdzZeNtuy" name="Page-1">
    <mxGraphModel dx="1235" dy="1140" grid="1" gridSize="10" guides="1" tooltips="1" connect="1" arrows="1" fold="1" page="0" pageScale="1" pageWidth="827" pageHeight="1169" math="0" shadow="0">
      <root>
        <mxCell id="WIyWlLk6GJQsqaUBKTNV-0" />
        <mxCell id="WIyWlLk6GJQsqaUBKTNV-1" parent="WIyWlLk6GJQsqaUBKTNV-0" />
        <mxCell id="LH36qVXjvVJ1DAsA1wm5-3" style="edgeStyle=orthogonalEdgeStyle;rounded=0;orthogonalLoop=1;jettySize=auto;html=1;exitX=0.5;exitY=1;exitDx=0;exitDy=0;entryX=0.5;entryY=0;entryDx=0;entryDy=0;" edge="1" parent="WIyWlLk6GJQsqaUBKTNV-1" source="LH36qVXjvVJ1DAsA1wm5-0" target="LH36qVXjvVJ1DAsA1wm5-2">
          <mxGeometry relative="1" as="geometry" />
        </mxCell>
        <mxCell id="LH36qVXjvVJ1DAsA1wm5-0" value="START" style="ellipse;whiteSpace=wrap;html=1;" vertex="1" parent="WIyWlLk6GJQsqaUBKTNV-1">
          <mxGeometry x="380" y="-101" width="120" height="80" as="geometry" />
        </mxCell>
        <mxCell id="LH36qVXjvVJ1DAsA1wm5-4" style="edgeStyle=orthogonalEdgeStyle;rounded=0;orthogonalLoop=1;jettySize=auto;html=1;exitX=0.5;exitY=1;exitDx=0;exitDy=0;" edge="1" parent="WIyWlLk6GJQsqaUBKTNV-1" source="LH36qVXjvVJ1DAsA1wm5-2">
          <mxGeometry relative="1" as="geometry">
            <mxPoint x="439.9999999999998" y="160" as="targetPoint" />
          </mxGeometry>
        </mxCell>
        <mxCell id="LH36qVXjvVJ1DAsA1wm5-2" value="n, i, result" style="shape=parallelogram;perimeter=parallelogramPerimeter;whiteSpace=wrap;html=1;fixedSize=1;" vertex="1" parent="WIyWlLk6GJQsqaUBKTNV-1">
          <mxGeometry x="380" y="39" width="120" height="60" as="geometry" />
        </mxCell>
        <mxCell id="LH36qVXjvVJ1DAsA1wm5-7" style="edgeStyle=orthogonalEdgeStyle;rounded=0;orthogonalLoop=1;jettySize=auto;html=1;exitX=0.5;exitY=1;exitDx=0;exitDy=0;" edge="1" parent="WIyWlLk6GJQsqaUBKTNV-1" source="LH36qVXjvVJ1DAsA1wm5-5" target="LH36qVXjvVJ1DAsA1wm5-6">
          <mxGeometry relative="1" as="geometry" />
        </mxCell>
        <mxCell id="LH36qVXjvVJ1DAsA1wm5-37" style="edgeStyle=orthogonalEdgeStyle;rounded=0;orthogonalLoop=1;jettySize=auto;html=1;exitX=1;exitY=0.5;exitDx=0;exitDy=0;" edge="1" parent="WIyWlLk6GJQsqaUBKTNV-1" source="LH36qVXjvVJ1DAsA1wm5-5">
          <mxGeometry relative="1" as="geometry">
            <mxPoint x="595" y="580" as="targetPoint" />
          </mxGeometry>
        </mxCell>
        <mxCell id="LH36qVXjvVJ1DAsA1wm5-5" value="1 &amp;lt;=i &amp;lt;= 9&lt;br&gt;1 &amp;lt;= n &amp;lt;=9" style="rhombus;whiteSpace=wrap;html=1;" vertex="1" parent="WIyWlLk6GJQsqaUBKTNV-1">
          <mxGeometry x="400" y="264" width="80" height="80" as="geometry" />
        </mxCell>
        <mxCell id="LH36qVXjvVJ1DAsA1wm5-11" style="edgeStyle=orthogonalEdgeStyle;rounded=0;orthogonalLoop=1;jettySize=auto;html=1;exitX=0.5;exitY=1;exitDx=0;exitDy=0;entryX=0.5;entryY=0;entryDx=0;entryDy=0;" edge="1" parent="WIyWlLk6GJQsqaUBKTNV-1" source="LH36qVXjvVJ1DAsA1wm5-6" target="LH36qVXjvVJ1DAsA1wm5-10">
          <mxGeometry relative="1" as="geometry" />
        </mxCell>
        <mxCell id="LH36qVXjvVJ1DAsA1wm5-6" value="result == i * n&lt;br&gt;n = n+1" style="rounded=0;whiteSpace=wrap;html=1;" vertex="1" parent="WIyWlLk6GJQsqaUBKTNV-1">
          <mxGeometry x="380" y="384" width="120" height="60" as="geometry" />
        </mxCell>
        <mxCell id="LH36qVXjvVJ1DAsA1wm5-9" style="edgeStyle=orthogonalEdgeStyle;rounded=0;orthogonalLoop=1;jettySize=auto;html=1;exitX=0.5;exitY=1;exitDx=0;exitDy=0;entryX=0.5;entryY=0;entryDx=0;entryDy=0;" edge="1" parent="WIyWlLk6GJQsqaUBKTNV-1" source="LH36qVXjvVJ1DAsA1wm5-8" target="LH36qVXjvVJ1DAsA1wm5-5">
          <mxGeometry relative="1" as="geometry" />
        </mxCell>
        <mxCell id="LH36qVXjvVJ1DAsA1wm5-8" value="n = 1" style="rounded=0;whiteSpace=wrap;html=1;" vertex="1" parent="WIyWlLk6GJQsqaUBKTNV-1">
          <mxGeometry x="380" y="160" width="120" height="60" as="geometry" />
        </mxCell>
        <mxCell id="LH36qVXjvVJ1DAsA1wm5-12" style="edgeStyle=orthogonalEdgeStyle;rounded=0;orthogonalLoop=1;jettySize=auto;html=1;exitX=0;exitY=0.5;exitDx=0;exitDy=0;entryX=0;entryY=0.5;entryDx=0;entryDy=0;" edge="1" parent="WIyWlLk6GJQsqaUBKTNV-1" source="LH36qVXjvVJ1DAsA1wm5-10" target="LH36qVXjvVJ1DAsA1wm5-5">
          <mxGeometry relative="1" as="geometry">
            <Array as="points">
              <mxPoint x="360" y="304" />
            </Array>
          </mxGeometry>
        </mxCell>
        <mxCell id="LH36qVXjvVJ1DAsA1wm5-10" value="i * n = result" style="shape=parallelogram;perimeter=parallelogramPerimeter;whiteSpace=wrap;html=1;fixedSize=1;" vertex="1" parent="WIyWlLk6GJQsqaUBKTNV-1">
          <mxGeometry x="350" y="500" width="180" height="70" as="geometry" />
        </mxCell>
        <mxCell id="LH36qVXjvVJ1DAsA1wm5-13" value="True" style="text;html=1;align=center;verticalAlign=middle;resizable=0;points=[];autosize=1;strokeColor=none;fillColor=none;" vertex="1" parent="WIyWlLk6GJQsqaUBKTNV-1">
          <mxGeometry x="435" y="338" width="50" height="30" as="geometry" />
        </mxCell>
        <mxCell id="LH36qVXjvVJ1DAsA1wm5-14" value="End" style="ellipse;whiteSpace=wrap;html=1;" vertex="1" parent="WIyWlLk6GJQsqaUBKTNV-1">
          <mxGeometry x="380" y="620" width="120" height="80" as="geometry" />
        </mxCell>
        <mxCell id="LH36qVXjvVJ1DAsA1wm5-19" style="edgeStyle=orthogonalEdgeStyle;rounded=0;orthogonalLoop=1;jettySize=auto;html=1;exitX=0.5;exitY=1;exitDx=0;exitDy=0;" edge="1" parent="WIyWlLk6GJQsqaUBKTNV-1" source="LH36qVXjvVJ1DAsA1wm5-16" target="LH36qVXjvVJ1DAsA1wm5-17">
          <mxGeometry relative="1" as="geometry" />
        </mxCell>
        <mxCell id="LH36qVXjvVJ1DAsA1wm5-16" value="Start" style="ellipse;whiteSpace=wrap;html=1;" vertex="1" parent="WIyWlLk6GJQsqaUBKTNV-1">
          <mxGeometry x="980" y="-100" width="120" height="80" as="geometry" />
        </mxCell>
        <mxCell id="LH36qVXjvVJ1DAsA1wm5-20" style="edgeStyle=orthogonalEdgeStyle;rounded=0;orthogonalLoop=1;jettySize=auto;html=1;exitX=0.5;exitY=1;exitDx=0;exitDy=0;entryX=0.5;entryY=0;entryDx=0;entryDy=0;" edge="1" parent="WIyWlLk6GJQsqaUBKTNV-1" source="LH36qVXjvVJ1DAsA1wm5-17" target="LH36qVXjvVJ1DAsA1wm5-18">
          <mxGeometry relative="1" as="geometry" />
        </mxCell>
        <mxCell id="LH36qVXjvVJ1DAsA1wm5-17" value="n, i, result" style="shape=parallelogram;perimeter=parallelogramPerimeter;whiteSpace=wrap;html=1;fixedSize=1;" vertex="1" parent="WIyWlLk6GJQsqaUBKTNV-1">
          <mxGeometry x="980" y="40" width="120" height="60" as="geometry" />
        </mxCell>
        <mxCell id="LH36qVXjvVJ1DAsA1wm5-32" style="edgeStyle=orthogonalEdgeStyle;rounded=0;orthogonalLoop=1;jettySize=auto;html=1;exitX=0.5;exitY=1;exitDx=0;exitDy=0;entryX=0.5;entryY=0;entryDx=0;entryDy=0;" edge="1" parent="WIyWlLk6GJQsqaUBKTNV-1" source="LH36qVXjvVJ1DAsA1wm5-18" target="LH36qVXjvVJ1DAsA1wm5-24">
          <mxGeometry relative="1" as="geometry" />
        </mxCell>
        <mxCell id="LH36qVXjvVJ1DAsA1wm5-18" value="n=1, i=1" style="rounded=0;whiteSpace=wrap;html=1;" vertex="1" parent="WIyWlLk6GJQsqaUBKTNV-1">
          <mxGeometry x="980" y="160" width="120" height="60" as="geometry" />
        </mxCell>
        <mxCell id="LH36qVXjvVJ1DAsA1wm5-21" value="False" style="text;html=1;align=center;verticalAlign=middle;resizable=0;points=[];autosize=1;strokeColor=none;fillColor=none;" vertex="1" parent="WIyWlLk6GJQsqaUBKTNV-1">
          <mxGeometry x="485" y="280" width="50" height="30" as="geometry" />
        </mxCell>
        <mxCell id="LH36qVXjvVJ1DAsA1wm5-22" style="edgeStyle=orthogonalEdgeStyle;rounded=0;orthogonalLoop=1;jettySize=auto;html=1;exitX=0.5;exitY=1;exitDx=0;exitDy=0;" edge="1" parent="WIyWlLk6GJQsqaUBKTNV-1" source="LH36qVXjvVJ1DAsA1wm5-24" target="LH36qVXjvVJ1DAsA1wm5-26">
          <mxGeometry relative="1" as="geometry" />
        </mxCell>
        <mxCell id="LH36qVXjvVJ1DAsA1wm5-34" style="edgeStyle=orthogonalEdgeStyle;rounded=0;orthogonalLoop=1;jettySize=auto;html=1;exitX=1;exitY=0.5;exitDx=0;exitDy=0;entryX=0;entryY=0.5;entryDx=0;entryDy=0;" edge="1" parent="WIyWlLk6GJQsqaUBKTNV-1" source="LH36qVXjvVJ1DAsA1wm5-24" target="LH36qVXjvVJ1DAsA1wm5-33">
          <mxGeometry relative="1" as="geometry" />
        </mxCell>
        <mxCell id="LH36qVXjvVJ1DAsA1wm5-24" value="1 &amp;lt;=i &amp;lt;= 9&lt;br&gt;1 &amp;lt;= n &amp;lt;=9" style="rhombus;whiteSpace=wrap;html=1;" vertex="1" parent="WIyWlLk6GJQsqaUBKTNV-1">
          <mxGeometry x="1000" y="280" width="80" height="80" as="geometry" />
        </mxCell>
        <mxCell id="LH36qVXjvVJ1DAsA1wm5-25" style="edgeStyle=orthogonalEdgeStyle;rounded=0;orthogonalLoop=1;jettySize=auto;html=1;exitX=0.5;exitY=1;exitDx=0;exitDy=0;entryX=0.5;entryY=0;entryDx=0;entryDy=0;" edge="1" parent="WIyWlLk6GJQsqaUBKTNV-1" source="LH36qVXjvVJ1DAsA1wm5-26" target="LH36qVXjvVJ1DAsA1wm5-28">
          <mxGeometry relative="1" as="geometry" />
        </mxCell>
        <mxCell id="LH36qVXjvVJ1DAsA1wm5-26" value="result == i * n&lt;br&gt;n = n+1" style="rounded=0;whiteSpace=wrap;html=1;" vertex="1" parent="WIyWlLk6GJQsqaUBKTNV-1">
          <mxGeometry x="980" y="400" width="120" height="60" as="geometry" />
        </mxCell>
        <mxCell id="LH36qVXjvVJ1DAsA1wm5-27" style="edgeStyle=orthogonalEdgeStyle;rounded=0;orthogonalLoop=1;jettySize=auto;html=1;exitX=0;exitY=0.5;exitDx=0;exitDy=0;entryX=0;entryY=0.5;entryDx=0;entryDy=0;" edge="1" parent="WIyWlLk6GJQsqaUBKTNV-1" source="LH36qVXjvVJ1DAsA1wm5-28" target="LH36qVXjvVJ1DAsA1wm5-24">
          <mxGeometry relative="1" as="geometry">
            <Array as="points">
              <mxPoint x="960" y="320" />
            </Array>
          </mxGeometry>
        </mxCell>
        <mxCell id="LH36qVXjvVJ1DAsA1wm5-28" value="i * n = result" style="shape=parallelogram;perimeter=parallelogramPerimeter;whiteSpace=wrap;html=1;fixedSize=1;" vertex="1" parent="WIyWlLk6GJQsqaUBKTNV-1">
          <mxGeometry x="950" y="516" width="180" height="70" as="geometry" />
        </mxCell>
        <mxCell id="LH36qVXjvVJ1DAsA1wm5-29" value="True" style="text;html=1;align=center;verticalAlign=middle;resizable=0;points=[];autosize=1;strokeColor=none;fillColor=none;" vertex="1" parent="WIyWlLk6GJQsqaUBKTNV-1">
          <mxGeometry x="1035" y="354" width="50" height="30" as="geometry" />
        </mxCell>
        <mxCell id="LH36qVXjvVJ1DAsA1wm5-30" value="End" style="ellipse;whiteSpace=wrap;html=1;" vertex="1" parent="WIyWlLk6GJQsqaUBKTNV-1">
          <mxGeometry x="980" y="636" width="120" height="80" as="geometry" />
        </mxCell>
        <mxCell id="LH36qVXjvVJ1DAsA1wm5-31" value="False" style="text;html=1;align=center;verticalAlign=middle;resizable=0;points=[];autosize=1;strokeColor=none;fillColor=none;" vertex="1" parent="WIyWlLk6GJQsqaUBKTNV-1">
          <mxGeometry x="1085" y="296" width="50" height="30" as="geometry" />
        </mxCell>
        <mxCell id="LH36qVXjvVJ1DAsA1wm5-35" style="edgeStyle=orthogonalEdgeStyle;rounded=0;orthogonalLoop=1;jettySize=auto;html=1;exitX=0.5;exitY=1;exitDx=0;exitDy=0;entryX=1;entryY=0.5;entryDx=0;entryDy=0;" edge="1" parent="WIyWlLk6GJQsqaUBKTNV-1" source="LH36qVXjvVJ1DAsA1wm5-33" target="LH36qVXjvVJ1DAsA1wm5-26">
          <mxGeometry relative="1" as="geometry" />
        </mxCell>
        <mxCell id="LH36qVXjvVJ1DAsA1wm5-33" value="i=1, n= n +1" style="rounded=0;whiteSpace=wrap;html=1;" vertex="1" parent="WIyWlLk6GJQsqaUBKTNV-1">
          <mxGeometry x="1140" y="338" width="120" height="60" as="geometry" />
        </mxCell>
        <mxCell id="LH36qVXjvVJ1DAsA1wm5-39" style="edgeStyle=orthogonalEdgeStyle;rounded=0;orthogonalLoop=1;jettySize=auto;html=1;exitX=0.5;exitY=1;exitDx=0;exitDy=0;" edge="1" parent="WIyWlLk6GJQsqaUBKTNV-1" source="LH36qVXjvVJ1DAsA1wm5-36" target="LH36qVXjvVJ1DAsA1wm5-14">
          <mxGeometry relative="1" as="geometry" />
        </mxCell>
        <mxCell id="LH36qVXjvVJ1DAsA1wm5-36" value="Bang cuu Chuong" style="shape=parallelogram;perimeter=parallelogramPerimeter;whiteSpace=wrap;html=1;fixedSize=1;" vertex="1" parent="WIyWlLk6GJQsqaUBKTNV-1">
          <mxGeometry x="530" y="576" width="120" height="60" as="geometry" />
        </mxCell>
      </root>
    </mxGraphModel>
  </diagram>
</mxfile>
